<?xml version="1.0" encoding="UTF-8" standalone="no"?>
<svg
   xmlns:dc="http://purl.org/dc/elements/1.1/"
   xmlns:cc="http://creativecommons.org/ns#"
   xmlns:rdf="http://www.w3.org/1999/02/22-rdf-syntax-ns#"
   xmlns:svg="http://www.w3.org/2000/svg"
   xmlns="http://www.w3.org/2000/svg"
   xmlns:sodipodi="http://sodipodi.sourceforge.net/DTD/sodipodi-0.dtd"
   xmlns:inkscape="http://www.inkscape.org/namespaces/inkscape"
   inkscape:export-ydpi="96"
   inkscape:export-xdpi="96"
   inkscape:export-filename="C:\Users\kaoru\Documents\setup.png"
   sodipodi:docname="setup.svg"
   inkscape:version="1.0 (4035a4fb49, 2020-05-01)"
   id="svg8"
   version="1.1"
   viewBox="0 0 67.733333 67.733333"
   height="256"
   width="256">
  <defs
     id="defs2" />
  <sodipodi:namedview
     inkscape:pagecheckerboard="true"
     inkscape:window-maximized="1"
     inkscape:window-y="-6"
     inkscape:window-x="-6"
     inkscape:window-height="1018"
     inkscape:window-width="1920"
     borderlayer="true"
     inkscape:showpageshadow="true"
     width="256px"
     units="px"
     showgrid="true"
     inkscape:document-rotation="0"
     inkscape:current-layer="layer1"
     inkscape:document-units="mm"
     inkscape:cy="144.51084"
     inkscape:cx="237.06667"
     inkscape:zoom="2.5"
     inkscape:pageshadow="2"
     inkscape:pageopacity="0.0"
     borderopacity="1.0"
     bordercolor="#666666"
     pagecolor="#ffffff"
     id="base">
    <inkscape:grid
       id="grid833"
       type="xygrid" />
  </sodipodi:namedview>
  <metadata
     id="metadata5">
    <rdf:RDF>
      <cc:Work
         rdf:about="">
        <dc:format>image/svg+xml</dc:format>
        <dc:type
           rdf:resource="http://purl.org/dc/dcmitype/StillImage" />
        <dc:title />
      </cc:Work>
    </rdf:RDF>
  </metadata>
  <g
     id="layer1"
     inkscape:groupmode="layer"
     inkscape:label="レイヤー 1">
    <path
       id="path940"
       style="fill:#ffffff;stroke-width:0.264583"
       d="M 19.049999,0.02633823 A 8.4666658,8.4666658 0 0 0 10.583333,8.4930048 h 8.466666 z" />
    <path
       style="fill:#ffffff;stroke-width:0.155001"
       d="m 27.516666,29.659672 v -19.05 l 11.641667,9.541963 11.641666,9.541962 -11.598396,9.508036 c -6.379114,5.229417 -11.617864,9.508037 -11.641665,9.508037 -0.02379,0 -0.04327,-8.572499 -0.04327,-19.049998 z"
       id="path957-3" />
    <rect
       ry="7.6293958e-07"
       rx="0"
       y="21.193003"
       x="3.3333333e-06"
       height="16.933334"
       width="29.633331"
       id="rect882-9-4-5-7"
       style="fill:#ffffff;stroke-width:0.44273" />
    <rect
       ry="1.3351444e-06"
       rx="0"
       y="26.940773"
       x="43.918156"
       height="29.633335"
       width="8.466671"
       id="rect882-9-4-5-4"
       style="fill:#ffffff;stroke-width:0.313057"
       transform="rotate(45)" />
    <rect
       ry="5.7220473e-07"
       rx="0"
       y="8.4930048"
       x="10.583328"
       height="12.700001"
       width="8.466671"
       id="rect882-9-4-5-3"
       style="fill:#ffffff;stroke-width:0.204944" />
    <rect
       style="fill:#ffffff;stroke-width:0.251005"
       id="rect882-9-4-5"
       width="8.466671"
       height="19.049997"
       x="10.583325"
       y="38.099998"
       rx="0"
       ry="8.5830686e-07" />
    <rect
       style="fill:#ffffff;stroke-width:0.401258"
       id="rect882-9-4-3"
       width="48.683334"
       height="8.4666643"
       x="19.049999"
       y="0.026341354"
       rx="0"
       ry="3.8146968e-07" />
    <rect
       ry="3.8146968e-07"
       rx="0"
       y="48.683334"
       x="12.699995"
       height="8.4666643"
       width="55.03334"
       id="rect882-9-4"
       style="fill:#ffffff;stroke-width:0.426624" />
    <path
       d="m 18.994188,2.1430048 a 6.3499999,6.3499999 0 0 0 -6.294188,6.35 h 4.233333 A 2.1166665,2.1166665 0 0 1 19.05,6.3763378 v -4.233333 a 6.3499999,6.3499999 0 0 0 -0.05581,0 z"
       style="fill:#000000;stroke-width:0.264583"
       id="path874" />
    <rect
       ry="1.9073487e-07"
       rx="0"
       y="2.1430056"
       x="19.049999"
       height="4.2333331"
       width="48.683338"
       id="rect882"
       style="fill:#000000;stroke-width:0.283734" />
    <rect
       ry="1.1920935e-07"
       y="8.4930029"
       x="12.699998"
       height="10.583335"
       width="4.2333341"
       id="rect884"
       style="fill:#000000;stroke-width:0.209171" />
    <rect
       style="fill:#000000;stroke-width:0.247495"
       id="rect884-6"
       width="4.2333345"
       height="14.816665"
       x="12.699993"
       y="40.216667"
       ry="1.6689302e-07" />
    <rect
       style="fill:#000000;stroke-width:0.289835"
       id="rect882-9"
       width="50.800003"
       height="4.2333331"
       x="16.933329"
       y="50.799999"
       rx="0"
       ry="1.9073487e-07" />
    <rect
       transform="rotate(45)"
       ry="2.8610239e-07"
       y="26.192417"
       x="45.906425"
       height="25.400002"
       width="4.2333345"
       id="rect884-6-2"
       style="fill:#000000;stroke-width:0.324047" />
    <rect
       inkscape:transform-center-y="-25.019"
       inkscape:transform-center-x="-54.080819"
       style="fill:#000000;stroke-width:0.606234"
       id="rect884-8"
       width="29.633329"
       height="12.700002"
       x="3.3333333e-06"
       y="23.309669"
       ry="1.4305121e-07" />
    <path
       id="path957"
       d="M 29.633333,29.633333 V 14.843005 L 38.1,22.251339 l 8.466666,7.408333 -8.435197,7.381994 c -4.639356,4.060094 -8.449356,7.381993 -8.466666,7.381993 -0.0173,0 -0.03147,-6.655646 -0.03147,-14.790326 z"
       style="fill:#000000;stroke-width:0.116473" />
  </g>
</svg>
